<?xml version="1.0" encoding="UTF-8" standalone="no"?>
<!-- Created with Inkscape (http://www.inkscape.org/) -->

<svg
   xmlns:dc="http://purl.org/dc/elements/1.1/"
   xmlns:cc="http://creativecommons.org/ns#"
   xmlns:rdf="http://www.w3.org/1999/02/22-rdf-syntax-ns#"
   xmlns:svg="http://www.w3.org/2000/svg"
   xmlns="http://www.w3.org/2000/svg"
   xmlns:sodipodi="http://sodipodi.sourceforge.net/DTD/sodipodi-0.dtd"
   xmlns:inkscape="http://www.inkscape.org/namespaces/inkscape"
   width="32"
   height="32"
   id="svg2"
   version="1.1"
   inkscape:version="0.48.4 r9939"
   sodipodi:docname="New document 1">
  <defs
     id="defs4">
    <inkscape:path-effect
       effect="envelope"
       id="path-effect3800"
       is_visible="true"
       yy="true"
       xx="true"
       bendpath1="m -57.60423,0.39007393 40.078125,0"
       bendpath2="m -17.526105,0.39007393 0,22.69043007"
       bendpath3="m -57.60423,23.080504 40.078125,0"
       bendpath4="m -57.60423,0.39007393 0,22.69043007" />
    <inkscape:path-effect
       effect="envelope"
       id="path-effect3798"
       is_visible="true"
       yy="true"
       xx="true"
       bendpath1="m -57.661892,0.39046439 c 13.50989,-4.31662899 26.913324,-11.27017739 40.078125,0"
       bendpath2="m -17.583767,0.39046439 c 1.504899,5.30612781 2.586145,11.24773561 0,22.69042961"
       bendpath3="m -57.661892,23.080894 c 19.718511,12.549506 31.833075,10.58493 40.078125,0"
       bendpath4="m -57.661892,0.39046439 c 0,13.55411561 0,19.46349561 0,22.69042961"
       bendpath1-nodetypes="cc"
       bendpath3-nodetypes="cc"
       bendpath2-nodetypes="cc"
       bendpath4-nodetypes="cc" />
    <inkscape:path-effect
       effect="bend_path"
       id="path-effect3796"
       is_visible="true"
       bendpath="m -57.661892,11.735679 40.078125,0"
       prop_scale="1"
       scale_y_rel="false"
       vertical="false" />
  </defs>
  <sodipodi:namedview
     id="base"
     pagecolor="#ffffff"
     bordercolor="#666666"
     borderopacity="1.0"
     inkscape:pageopacity="0.0"
     inkscape:pageshadow="2"
     inkscape:zoom="2.8"
     inkscape:cx="-12.376496"
     inkscape:cy="49.873781"
     inkscape:document-units="px"
     inkscape:current-layer="layer1"
     showgrid="false"
     fit-margin-top="0"
     fit-margin-left="0"
     fit-margin-right="0"
     fit-margin-bottom="0"
     inkscape:window-width="869"
     inkscape:window-height="558"
     inkscape:window-x="33"
     inkscape:window-y="36"
     inkscape:window-maximized="0" />
  <metadata
     id="metadata7">
    <rdf:RDF>
      <cc:Work
         rdf:about="">
        <dc:format>image/svg+xml</dc:format>
        <dc:type
           rdf:resource="http://purl.org/dc/dcmitype/StillImage" />
        <dc:title></dc:title>
      </cc:Work>
    </rdf:RDF>
  </metadata>
  <g
     inkscape:label="Layer 1"
     inkscape:groupmode="layer"
     id="layer1"
     transform="translate(-259.84375,-299.87499)">
    <path
       sodipodi:type="arc"
       style="fill:none;stroke:#313131;stroke-width:20;stroke-miterlimit:4;stroke-opacity:1;stroke-dasharray:none"
       id="path2985"
       sodipodi:cx="372.85715"
       sodipodi:cy="305.21933"
       sodipodi:rx="81.428574"
       sodipodi:ry="81.428574"
       d="m 454.28572,305.21933 a 81.428574,81.428574 0 1 1 -162.85715,0 81.428574,81.428574 0 1 1 162.85715,0 z"
       transform="matrix(0.14020451,0,0,0.14020451,227.3932,269.79059)"
       inkscape:export-filename="/home/nicholas/Desktop/test1.png"
       inkscape:export-xdpi="14.751332"
       inkscape:export-ydpi="14.751332" />
    <path
       style="fill:none;stroke:#313131;stroke-width:2.80409026000000017;stroke-linecap:butt;stroke-linejoin:miter;stroke-miterlimit:4;stroke-opacity:1;stroke-dasharray:none"
       d="m 272.57212,320.1164 -10.35425,10.43258"
       id="path3773"
       inkscape:connector-curvature="0"
       sodipodi:nodetypes="cc"
       inkscape:export-filename="/home/nicholas/Desktop/test1.png"
       inkscape:export-xdpi="14.751332"
       inkscape:export-ydpi="14.751332" />
    <flowRoot
       xml:space="preserve"
       id="flowRoot3779"
       style="font-size:30px;font-style:normal;font-variant:normal;font-weight:normal;font-stretch:normal;line-height:125%;letter-spacing:0px;word-spacing:0px;fill:#000000;fill-opacity:1;stroke:none;font-family:Linux Biolinum O;-inkscape-font-specification:Linux Biolinum O"><flowRegion
         id="flowRegion3781"><rect
           id="rect3783"
           width="31.428572"
           height="57.142857"
           x="328.57144"
           y="286.64789" /></flowRegion><flowPara
         id="flowPara3785"></flowPara></flowRoot>    <g
       transform="matrix(0.45858753,0,0,0.45858753,296.6699,307.11035)"
       style="font-size:30px;font-style:normal;font-variant:normal;font-weight:normal;font-stretch:normal;line-height:125%;letter-spacing:0px;word-spacing:0px;fill:#000000;fill-opacity:1;stroke:none;font-family:Linux Biolinum O;-inkscape-font-specification:Linux Biolinum O"
       id="text3787"
       inkscape:path-effect="#path-effect3798;#path-effect3800">
      <path
         d="m -38.983615,-0.62388337 c 0.24417,2.00961597 0.389242,3.73729177 0.483641,5.27098227 -0.979375,-1.2861905 -2.082722,-2.2867242 -3.263046,-2.8288203 -1.17105,-0.5438752 -2.412095,-0.6293886 -3.672798,-0.3210912 -1.241316,0.3036046 -2.295978,0.8610546 -3.207862,1.535031 -0.911884,0.6739765 -1.691392,1.4619181 -2.39741,2.3302876 -1.01718,1.243071 -1.862654,2.6202266 -2.281861,4.2981483 0,1e-7 -10e-7,2e-7 -10e-7,3e-7 -0.158488,0.6620774 -0.247047,1.3748894 -0.247532,2.1494704 -8.71e-4,1.379271 0.282568,2.63115 0.729585,3.784876 0.447016,1.153726 1.045538,2.211173 1.732309,3.227267 0.687042,1.010352 1.446898,1.958286 2.347814,2.801762 0.900917,0.843477 1.954316,1.580434 3.209343,2.036465 1.274619,0.463154 2.542444,0.465482 3.736499,-0.0679 1.203513,-0.530799 2.325037,-1.597951 3.313222,-3.004405 -0.08674,1.682093 -0.216231,3.567269 -0.435956,5.729217 -1.163685,1.275109 -2.486829,2.135832 -3.858072,2.432946 -1.36116,0.301134 -2.760493,0.03387 -4.082318,-0.684564 -1.697365,-0.922548 -2.98099,-2.292579 -4.032198,-3.656326 -1.051207,-1.363747 -1.909576,-2.713172 -2.819537,-4.021838 -0.909356,-1.314204 -1.815416,-2.539535 -2.531392,-3.932011 -0.715977,-1.392476 -1.211226,-2.962756 -1.211685,-4.713283 -2.09e-4,-0.792359 0.09779,-1.541237 0.274327,-2.2418063 0,-10e-8 0,-3e-7 0,-4e-7 0.303424,-1.2003919 0.835931,-2.2494567 1.461445,-3.1997767 0.625513,-0.9503201 1.337984,-1.8080713 2.067575,-2.6895813 0.941705,-1.1437777 1.842226,-2.283034 2.91898,-3.39288336 1.076754,-1.10984939 2.365464,-2.18137764 4.031287,-2.85160524 1.316936,-0.5297897 2.683857,-0.6685587 4.005839,-0.314291 1.327088,0.3311351 2.60289,1.1505462 3.729802,2.32372493 0,0 0,0 0,0 z"
         style="font-family:sans;-inkscape-font-specification:sans"
         id="path3792"
         inkscape:original-d="m -40.025173,2.4705429 0,3.1201172 C -41.021285,4.6629437 -42.085737,3.969585 -43.218533,3.510582 -44.341594,3.0516172 -45.537882,2.8221252 -46.8074,2.8221054 c -2.50001,1.98e-5 -4.41407,0.7666206 -5.742187,2.2998047 -1.328131,1.5234535 -1.992193,3.7304825 -1.992188,6.6210939 -5e-6,2.880867 0.664057,5.087896 1.992188,6.621094 1.328117,1.52344 3.242177,2.285158 5.742187,2.285156 1.269518,2e-6 2.465806,-0.22949 3.588867,-0.688477 1.132796,-0.458981 2.197248,-1.15234 3.19336,-2.080078 l 0,3.09082 c -1.035175,0.703126 -2.133806,1.23047 -3.295899,1.582032 -1.152358,0.351562 -2.37306,0.527343 -3.662109,0.527343 -3.310556,0 -5.917975,-1.010741 -7.822266,-3.032226 -1.904299,-2.031245 -2.856447,-4.799797 -2.856445,-8.305664 -2e-6,-3.5156107 0.952146,-6.2841626 2.856445,-8.3056642 1.904291,-2.0312288 4.51171,-3.04685275 7.822266,-3.04687502 1.30858,2.227e-5 2.539048,0.17580334 3.691406,0.52734375 1.162092,0.34181827 2.250959,0.85939587 3.266602,1.55273437"
         inkscape:connector-curvature="0" />
      <path
         d="m -21.051642,20.040565 c 0.0013,-1.143525 0.185826,-2.237535 0.384762,-3.289531 0.198935,-1.051995 0.41202,-2.061935 0.543206,-3.044311 -2.071048,0.06617 -3.880597,0.19805 -5.500847,0.323874 0.03994,-0.882288 0.06018,-1.726241 0.0489,-2.563633 2.641092,-0.06095 5.795388,-0.174413 9.744404,-0.261166 0.04564,1.579127 -0.328245,3.183859 -0.868525,4.786534 -0.540281,1.602676 -1.24436,3.202827 -1.318867,4.733598 -1.249691,0.897037 -2.076126,2.009759 -2.978784,3.320502 -0.909071,1.29736 -1.940198,2.73961 -3.391634,3.780969 -0.08781,0.063 -0.176142,0.123842 -0.264962,0.182401 -0.776035,0.511653 -1.589556,0.839602 -2.392374,0.948997 0,0 -10e-7,0 -10e-7,0 -1.213724,0.164563 -2.39321,-0.179353 -3.404645,-0.942237 -1.011434,-0.762883 -1.854444,-1.933481 -2.523257,-3.311347 -0.156734,-0.326151 -0.302765,-0.660606 -0.438978,-1.001088 0,0 0,0 0,-1e-6 -0.741904,-1.797826 -1.216875,-3.744123 -1.527927,-5.655026 -0.311051,-1.910903 -0.453387,-3.776126 -0.458203,-5.730129 -0.0023,-0.953018 0.0281,-1.844179 0.09188,-2.7142809 0,-2e-7 0,-4e-7 0,-6e-7 0.112574,-1.3234773 0.300068,-2.6338166 0.580471,-3.9597492 0.280404,-1.3259325 0.653807,-2.6652887 1.167012,-3.9416152 0,-2e-7 0,-3e-7 0,-5e-7 0.124204,-0.3152813 0.257404,-0.6261205 0.400542,-0.93062506 0.611103,-1.2997813 1.384547,-2.43572684 2.333219,-3.23031634 0.948673,-0.7945895 2.072964,-1.2390143 3.269275,-1.2358536 10e-7,0 10e-7,0 10e-7,0 0.791302,0.00154 1.607163,0.1979149 2.406949,0.559175 0.09154,0.041347 0.182883,0.084798 0.273998,0.1302651 1.374242,0.6858317 2.462384,1.7358054 3.415927,2.76247779 0.962423,1.03058593 1.802231,1.98410131 2.900999,2.75648771 -0.0455,1.0960207 0.240113,2.1470194 0.572125,3.1849239 -1.684269,-0.8221806 -3.00728,-1.6182685 -4.213679,-2.4040342 -1.206435,-0.7857241 -2.334766,-1.5261446 -3.574772,-1.9216138 -0.164408,-0.052427 -0.326319,-0.09871 -0.485784,-0.1383163 0,-1e-7 0,-1e-7 0,-1e-7 -0.767216,-0.1900995 -1.483435,-0.212966 -2.133864,-0.048717 -1.209466,0.2969605 -2.181871,1.2452472 -2.871926,2.5684177 -0.409992,0.7921636 -0.723359,1.7078893 -0.957491,2.686869 -0.234133,0.9789798 -0.389939,2.0182456 -0.486096,3.1090041 0,2e-7 0,3e-7 0,5e-7 -0.06415,0.8417825 -0.09247,1.7267905 -0.08836,2.6909565 0.0075,1.754577 0.121779,3.377092 0.385753,4.911057 0.263974,1.533965 0.680272,2.96545 1.286153,4.119458 0.740186,1.39934 1.771451,2.343985 3.000208,2.5407 0.660795,0.101036 1.376911,-0.0084 2.126321,-0.304824 0,0 0,0 0,0 0.155792,-0.06076 0.313248,-0.129315 0.472435,-0.205019 0.924228,-0.439525 1.723248,-0.979914 2.437547,-1.526184 0.711992,-0.559737 1.368706,-1.148082 2.038891,-1.737049 0,0 0,0 0,0 z"
         style="font-family:sans;-inkscape-font-specification:sans"
         id="path3794"
         inkscape:original-d="m -20.513454,19.535973 0,-5.874024 -4.833985,0 0,-2.43164 7.763672,0 0,9.389648 c -1.142598,0.810548 -2.402362,1.425782 -3.779297,1.845703 -1.376969,0.410156 -2.846694,0.615234 -4.409179,0.615234 -3.417978,0 -6.093757,-0.996093 -8.027344,-2.988281 -1.923831,-2.001948 -2.885744,-4.785149 -2.885742,-8.349609 -2e-6,-3.5742044 0.961911,-6.3574048 2.885742,-8.3496095 1.933587,-2.0019319 4.609366,-3.00290745 8.027344,-3.00292972 1.425767,2.227e-5 2.778304,0.17580334 4.057617,0.52734375 1.289044,0.35158387 2.475566,0.86916147 3.55957,1.55273437 l 0,3.1494141 C -19.248825,4.6922406 -20.410933,3.9939991 -21.641384,3.5252304 -22.871868,3.0565 -24.165812,2.8221252 -25.52322,2.8221054 c -2.675791,1.98e-5 -4.687508,0.7470894 -6.035156,2.2412109 -1.337896,1.4941568 -2.006841,3.720717 -2.006836,6.6796877 -5e-6,2.949227 0.66894,5.170904 2.006836,6.665039 1.347648,1.494143 3.359365,2.241213 6.035156,2.241211 1.044908,2e-6 1.977524,-0.08789 2.797852,-0.263672 0.820296,-0.185544 1.557599,-0.468747 2.211914,-0.849609"
         inkscape:connector-curvature="0" />
    </g>
  </g>
</svg>
